<svg xmlns="http://www.w3.org/2000/svg" style="display:none">
<!-- BOB Retro-Futurism Icon Set · 24x24 grid · stroke 1.75 · round caps/joins
     Geometry rule: circles, arcs, 45° diagonals only. No organic curves. -->

<!-- ============ CAPABILITY MARKS (the four services) ============ -->
<symbol id="i-orchestration" viewBox="0 0 24 24" fill="none" stroke="currentColor" stroke-width="1.75" stroke-linecap="round" stroke-linejoin="round">
  <circle cx="12" cy="4.5" r="2.25"/><circle cx="4.75" cy="19" r="2.25"/><circle cx="19.25" cy="19" r="2.25"/>
  <path d="M10.6 6.4 6.2 16.9M13.4 6.4l4.4 10.5M7 19h10"/>
</symbol>
<symbol id="i-automation" viewBox="0 0 24 24" fill="none" stroke="currentColor" stroke-width="1.75" stroke-linecap="round" stroke-linejoin="round">
  <path d="M20 12a8 8 0 1 1-2.6-5.9"/><path d="M20 3.5V7h-3.5"/><circle cx="12" cy="12" r="2.5"/>
</symbol>
<symbol id="i-knowledge" viewBox="0 0 24 24" fill="none" stroke="currentColor" stroke-width="1.75" stroke-linecap="round" stroke-linejoin="round">
  <path d="M4 5.5A1.5 1.5 0 0 1 5.5 4H11v13H5.5A1.5 1.5 0 0 0 4 18.5Z"/>
  <path d="M20 5.5A1.5 1.5 0 0 0 18.5 4H13v13h5.5a1.5 1.5 0 0 1 1.5 1.5Z"/><path d="M12 17v3"/>
</symbol>
<symbol id="i-integrations" viewBox="0 0 24 24" fill="none" stroke="currentColor" stroke-width="1.75" stroke-linecap="round" stroke-linejoin="round">
  <path d="M8.5 4.5 4 12l4.5 7.5M15.5 4.5 20 12l-4.5 7.5"/><circle cx="12" cy="12" r="1.6"/>
</symbol>

<!-- ============ SIGNATURE ORNAMENTS ============ -->
<symbol id="i-sparkle" viewBox="0 0 24 24" fill="currentColor">
  <path d="M12 1.5c.7 5.2 4.6 9.1 9.8 9.8v1.4c-5.2.7-9.1 4.6-9.8 9.8h-1.4C10 17.3 6.1 13.4.9 12.7v-1.4C6.1 10.6 10 6.7 10.6 1.5Z"/>
</symbol>
<symbol id="i-starburst" viewBox="0 0 24 24" fill="currentColor">
  <path d="M12 0.5 13.3 9 20 4.3 15.3 11l8.5 1-8.5 1 4.7 6.7L13.3 15 12 23.5 10.7 15 4 19.7 8.7 13 .2 12l8.5-1L4 4.3 10.7 9Z"/>
</symbol>
<symbol id="i-globe-wire" viewBox="0 0 24 24" fill="none" stroke="currentColor" stroke-width="1.5">
  <circle cx="12" cy="12" r="9"/><ellipse cx="12" cy="12" rx="4" ry="9"/>
  <path d="M3 12h18M4.6 6.8h14.8M4.6 17.2h14.8"/>
</symbol>
<symbol id="i-orbit" viewBox="0 0 24 24" fill="none" stroke="currentColor" stroke-width="1.5">
  <circle cx="12" cy="12" r="4"/><ellipse cx="12" cy="12" rx="10.5" ry="4.5" transform="rotate(-24 12 12)"/>
  <circle cx="21" cy="8.2" r="1.5" fill="currentColor" stroke="none"/>
</symbol>

<!-- ============ UI / NAVIGATION ============ -->
<symbol id="i-arrow-right" viewBox="0 0 24 24" fill="none" stroke="currentColor" stroke-width="1.75" stroke-linecap="round" stroke-linejoin="round">
  <path d="M4 12h15M13 6l6 6-6 6"/>
</symbol>
<symbol id="i-arrow-ne" viewBox="0 0 24 24" fill="none" stroke="currentColor" stroke-width="1.75" stroke-linecap="round" stroke-linejoin="round">
  <path d="M6.5 17.5 17.5 6.5M8.5 6.5h9v9"/>
</symbol>
<symbol id="i-play" viewBox="0 0 24 24" fill="currentColor"><path d="M8.5 5.6 19 12 8.5 18.4Z"/></symbol>
<symbol id="i-plus" viewBox="0 0 24 24" fill="none" stroke="currentColor" stroke-width="1.75" stroke-linecap="round"><path d="M12 5v14M5 12h14"/></symbol>
<symbol id="i-check" viewBox="0 0 24 24" fill="none" stroke="currentColor" stroke-width="2" stroke-linecap="round" stroke-linejoin="round"><path d="M4.5 12.5 9.5 17.5 19.5 6.5"/></symbol>
<symbol id="i-chevron-down" viewBox="0 0 24 24" fill="none" stroke="currentColor" stroke-width="1.75" stroke-linecap="round" stroke-linejoin="round"><path d="M6 9.5 12 15.5 18 9.5"/></symbol>
<symbol id="i-close" viewBox="0 0 24 24" fill="none" stroke="currentColor" stroke-width="1.75" stroke-linecap="round"><path d="M6 6l12 12M18 6 6 18"/></symbol>

<!-- ============ META / FACTS ============ -->
<symbol id="i-pin" viewBox="0 0 24 24" fill="none" stroke="currentColor" stroke-width="1.75" stroke-linecap="round" stroke-linejoin="round">
  <path d="M12 21.5S4.75 15 4.75 9.75a7.25 7.25 0 0 1 14.5 0C19.25 15 12 21.5 12 21.5Z"/><circle cx="12" cy="9.75" r="2.6"/>
</symbol>
<symbol id="i-clock" viewBox="0 0 24 24" fill="none" stroke="currentColor" stroke-width="1.75" stroke-linecap="round" stroke-linejoin="round">
  <circle cx="12" cy="12" r="8.5"/><path d="M12 7v5.2l3.4 2"/>
</symbol>
<symbol id="i-bolt" viewBox="0 0 24 24" fill="none" stroke="currentColor" stroke-width="1.75" stroke-linecap="round" stroke-linejoin="round"><path d="M13.5 2.5 5 13.5h6L10.5 21.5 19 10.5h-6Z"/></symbol>
<symbol id="i-shield" viewBox="0 0 24 24" fill="none" stroke="currentColor" stroke-width="1.75" stroke-linecap="round" stroke-linejoin="round">
  <path d="M12 2.5 4.5 5.8v6c0 4.6 3.1 8.4 7.5 9.7 4.4-1.3 7.5-5.1 7.5-9.7v-6Z"/><path d="M9 12.2 11.3 14.5 15.5 10"/>
</symbol>
<symbol id="i-eye" viewBox="0 0 24 24" fill="none" stroke="currentColor" stroke-width="1.75" stroke-linecap="round" stroke-linejoin="round">
  <path d="M1.8 12S5.6 5.5 12 5.5 22.2 12 22.2 12 18.4 18.5 12 18.5 1.8 12 1.8 12Z"/><circle cx="12" cy="12" r="3.1"/>
</symbol>
<symbol id="i-terminal" viewBox="0 0 24 24" fill="none" stroke="currentColor" stroke-width="1.75" stroke-linecap="round" stroke-linejoin="round">
  <rect x="2.75" y="4.25" width="18.5" height="15.5" rx="2.25"/><path d="M7 9.5 10 12.5 7 15.5M12.5 15.5h4.5"/>
</symbol>

<!-- ============ CONTACT / SOCIAL ============ -->
<symbol id="i-mail" viewBox="0 0 24 24" fill="none" stroke="currentColor" stroke-width="1.75" stroke-linecap="round" stroke-linejoin="round">
  <rect x="2.75" y="5" width="18.5" height="14" rx="2.25"/><path d="M3.5 7 12 13 20.5 7"/>
</symbol>
<symbol id="i-github" viewBox="0 0 24 24" fill="currentColor">
  <path d="M12 1.8a10.2 10.2 0 0 0-3.2 19.9c.5.1.7-.2.7-.5v-1.9c-2.8.6-3.4-1.3-3.4-1.3-.5-1.2-1.1-1.5-1.1-1.5-.9-.6.1-.6.1-.6 1 .1 1.6 1 1.6 1 .9 1.6 2.4 1.1 3 .9.1-.7.4-1.1.7-1.4-2.3-.3-4.7-1.1-4.7-5 0-1.1.4-2 1-2.7-.1-.3-.4-1.3.1-2.7 0 0 .8-.3 2.7 1a9.4 9.4 0 0 1 5 0c1.9-1.3 2.7-1 2.7-1 .5 1.4.2 2.4.1 2.7.6.7 1 1.6 1 2.7 0 3.9-2.4 4.7-4.6 5 .4.3.7 1 .7 2v2.9c0 .3.2.6.7.5A10.2 10.2 0 0 0 12 1.8Z"/>
</symbol>
<symbol id="i-discord" viewBox="0 0 24 24" fill="currentColor">
  <path d="M19.3 5.4A16 16 0 0 0 15.3 4l-.3.6a14.9 14.9 0 0 0-6 0L8.7 4a16 16 0 0 0-4 1.4C2.2 9.1 1.5 12.7 1.9 16.2A16.1 16.1 0 0 0 6.7 20l1-1.7a10.5 10.5 0 0 1-1.6-.8l.4-.3a11.5 11.5 0 0 0 11 0l.4.3c-.5.3-1 .6-1.6.8l1 1.7a16 16 0 0 0 4.8-3.8c.5-4.1-.6-7.7-2.8-10.8ZM8.6 14.2c-1 0-1.7-.9-1.7-2s.8-2 1.7-2 1.8.9 1.7 2c0 1.1-.8 2-1.7 2Zm6.8 0c-1 0-1.7-.9-1.7-2s.8-2 1.7-2 1.8.9 1.7 2c0 1.1-.7 2-1.7 2Z"/>
</symbol>
<symbol id="i-linkedin" viewBox="0 0 24 24" fill="currentColor">
  <path d="M4.98 3.5a2.5 2.5 0 1 0 0 5 2.5 2.5 0 0 0 0-5ZM3 9.75h4v11H3ZM9.5 9.75h3.8v1.5a4.2 4.2 0 0 1 3.7-1.9c3 0 4 2 4 5.2v6.2h-4v-5.5c0-1.6-.6-2.6-2-2.6s-2.2 1-2.2 2.6v5.5h-3.3Z"/>
</symbol>
</svg>
